<mxfile host="app.diagrams.net" modified="2023-08-18T17:19:04.441Z" agent="Mozilla/5.0 (Windows NT 10.0; Win64; x64; rv:109.0) Gecko/20100101 Firefox/116.0" version="21.6.6" etag="VxuMTodUXkDyZP7fL31d" type="github">
  <diagram name="Page-1" id="TSIzAAsF8sugx_9lJElB">
    <mxGraphModel>
      <root>
        <mxCell id="0" />
        <mxCell id="1" parent="0" />
      </root>
    </mxGraphModel>
  </diagram>
</mxfile>
